<?xml version="1.0" encoding="UTF-8"?>
<svg xmlns="http://www.w3.org/2000/svg" version="1.1" viewBox="0 0 158 158">
  <!-- Generator: Adobe Illustrator 28.7.1, SVG Export Plug-In . SVG Version: 1.2.0 Build 142)  -->
  <g>
    <g id="_레이어_1" data-name="레이어_1">
      <g>
        <path d="M158,42.81v72.38c0,3.85-3.13,6.97-7,6.97s-7-3.12-7-6.97V42.81c0-3.85,3.13-6.97,7-6.97s7,3.12,7,6.97Z"/>
        <path d="M129.2,6.98v144.05c0,3.08-2,5.69-4.78,6.61-.7.23-1.45.36-2.22.36s-1.52-.13-2.22-.36c-2.77-.92-4.78-3.54-4.78-6.61V6.98C115.2,3.12,118.34,0,122.2,0s7,3.12,7,6.98Z"/>
        <path d="M100.4,32.81v92.38c0,3.85-3.13,6.97-7,6.97s-7-3.12-7-6.97V32.81c0-3.85,3.13-6.97,7-6.97s7,3.12,7,6.97Z"/>
        <path d="M71.6,54.58v48.85c0,3.85-3.13,6.97-7,6.97s-7-3.12-7-6.97v-48.85c0-3.85,3.13-6.97,7-6.97s7,3.12,7,6.97Z"/>
        <path d="M42.8,71.68v14.64c0,3.85-3.13,6.97-7,6.97s-7-3.12-7-6.97v-14.64c0-3.85,3.13-6.97,7-6.97s7,3.12,7,6.97Z"/>
        <path d="M14.01,75.63v6.76c0,3.85-3.13,6.97-7.01,6.97s-7-3.12-7-6.97v-6.76c0-3.85,3.13-6.97,7-6.97s7.01,3.12,7.01,6.97Z"/>
      </g>
    </g>
  </g>
</svg>